<svg width="186" height="46" viewBox="0 0 186 46" fill="none" xmlns="http://www.w3.org/2000/svg">
<path d="M22.7466 4.04169C17.0444 4.04169 13.3471 7.86936 8.97437 9.26452C7.19642 9.83181 6.30743 10.1154 5.94765 10.5153C5.58788 10.9151 5.48253 11.4994 5.27183 12.668C3.01713 25.1726 7.94529 36.7334 19.6983 41.2332C20.9611 41.7166 21.5925 41.9584 22.7529 41.9584C23.9131 41.9584 24.5446 41.7166 25.8073 41.2332C37.5595 36.7332 42.483 25.1726 40.2277 12.668C40.0169 11.4992 39.9115 10.9148 39.5517 10.515C39.1918 10.1151 38.3029 9.83166 36.525 9.26469C32.1505 7.86966 28.4491 4.04169 22.7466 4.04169Z" stroke="#3C5FDB" stroke-width="2.84375" stroke-linecap="round" stroke-linejoin="round"/>
<path d="M19.5975 19.9286C17.55 19.9286 16.5263 21.4073 16.2988 22.3173C16.0713 23.2273 16.0713 26.5261 16.2078 27.8911C16.6628 29.5973 17.8003 30.3026 18.915 30.5301C19.9387 30.6211 24.2612 30.5869 25.5125 30.5869C27.3325 30.6211 28.6975 29.9386 29.2662 27.8911C29.38 27.2086 29.4937 23.4548 29.2093 22.3173C28.6065 20.4973 27.105 19.9286 25.9675 19.9286H19.5975Z" stroke="#3C5FDB" stroke-width="2.84375" stroke-linecap="round"/>
<path d="M19.4323 19.1297C19.4323 19.016 19.4478 18.3611 19.4505 17.5372C19.4529 16.7844 19.3868 16.0585 19.7462 15.3942C21.093 12.7142 24.9605 12.9872 25.916 15.7172C26.0815 16.1667 26.0916 16.8792 26.0866 17.5372C26.0804 18.378 26.098 19.1297 26.098 19.1297" stroke="#3C5FDB" stroke-width="2.84375" stroke-linecap="round"/>
<path d="M73.801 26.6204H69.4057V33.5H65.9113V13.5437H73.801C77.8141 13.5437 80.4076 16.1645 80.4076 20.0684C80.4076 23.9177 77.7868 26.6204 73.801 26.6204ZM73.1185 16.6559H69.4057V23.5082H73.0639C75.4663 23.5082 76.7494 22.2251 76.7494 20.0411C76.7494 17.8571 75.439 16.6559 73.1185 16.6559ZM86.3356 33.8549C83.4691 33.8549 81.7219 32.1896 81.7219 29.6507C81.7219 27.1664 83.5237 25.6103 86.7178 25.3646L90.7582 25.0643V24.764C90.7582 22.9349 89.6662 22.1978 87.9736 22.1978C86.008 22.1978 84.916 23.0168 84.916 24.4364H82.0768C82.0768 21.5153 84.4792 19.6043 88.1374 19.6043C91.7683 19.6043 94.0069 21.5699 94.0069 25.31V33.5H91.0858L90.8401 31.5071C90.2668 32.8994 88.4377 33.8549 86.3356 33.8549ZM87.4276 31.3433C89.4751 31.3433 90.7855 30.1148 90.7855 28.04V27.3302L87.9736 27.5486C85.8988 27.7397 85.1071 28.4222 85.1071 29.5142C85.1071 30.7427 85.9261 31.3433 87.4276 31.3433ZM96.2414 29.405H99.4082C99.4355 30.5789 100.309 31.316 101.838 31.316C103.394 31.316 104.24 30.6881 104.24 29.7053C104.24 29.0228 103.885 28.5314 102.684 28.2584L100.254 27.6851C97.8248 27.1391 96.6509 25.9925 96.6509 23.8358C96.6509 21.1877 98.8895 19.6043 102.002 19.6043C105.032 19.6043 107.079 21.3515 107.107 23.9723H103.94C103.913 22.8257 103.148 22.0886 101.865 22.0886C100.555 22.0886 99.7904 22.6892 99.7904 23.6993C99.7904 24.4637 100.391 24.9551 101.538 25.2281L103.967 25.8014C106.233 26.3201 107.38 27.3575 107.38 29.4323C107.38 32.1623 105.059 33.8549 101.729 33.8549C98.3708 33.8549 96.2414 32.0531 96.2414 29.405ZM108.878 29.405H112.045C112.072 30.5789 112.946 31.316 114.475 31.316C116.031 31.316 116.877 30.6881 116.877 29.7053C116.877 29.0228 116.522 28.5314 115.321 28.2584L112.891 27.6851C110.462 27.1391 109.288 25.9925 109.288 23.8358C109.288 21.1877 111.526 19.6043 114.639 19.6043C117.669 19.6043 119.716 21.3515 119.744 23.9723H116.577C116.55 22.8257 115.785 22.0886 114.502 22.0886C113.192 22.0886 112.427 22.6892 112.427 23.6993C112.427 24.4637 113.028 24.9551 114.175 25.2281L116.604 25.8014C118.87 26.3201 120.017 27.3575 120.017 29.4323C120.017 32.1623 117.696 33.8549 114.366 33.8549C111.008 33.8549 108.878 32.0531 108.878 29.405ZM125.155 33.5L120.787 20.0138H124.254L126.029 25.8014C126.329 26.8661 126.602 28.04 126.848 29.2958C127.093 27.9854 127.339 27.1391 127.776 25.8014L129.632 20.0138H133.017L134.819 25.8014C134.983 26.3474 135.529 28.3676 135.693 29.2685C135.911 28.2584 136.348 26.6477 136.594 25.8014L138.396 20.0138H141.917L137.249 33.5H134.137L132.28 27.6578C131.734 25.8833 131.434 24.6002 131.325 23.9177C131.188 24.5456 130.943 25.5011 130.26 27.7124L128.404 33.5H125.155ZM142.476 26.7296C142.476 22.5254 145.506 19.6316 149.683 19.6316C153.86 19.6316 156.89 22.5254 156.89 26.7296C156.89 30.9338 153.86 33.8276 149.683 33.8276C145.506 33.8276 142.476 30.9338 142.476 26.7296ZM145.806 26.7296C145.806 29.1866 147.39 30.8519 149.683 30.8519C151.976 30.8519 153.56 29.1866 153.56 26.7296C153.56 24.2726 151.976 22.6073 149.683 22.6073C147.39 22.6073 145.806 24.2726 145.806 26.7296ZM167.993 19.9592V23.0441H166.765C164.362 23.0441 162.861 24.3272 162.861 26.948V33.5H159.53V20.0411H162.67L162.861 22.0067C163.434 20.669 164.717 19.7681 166.519 19.7681C166.983 19.7681 167.447 19.8227 167.993 19.9592ZM175.336 33.8549C171.432 33.8549 169.003 30.9884 169.003 26.8115C169.003 22.6073 171.46 19.6043 175.527 19.6043C177.411 19.6043 179.076 20.396 179.923 21.7337V13.1888H183.226V33.5H180.168L179.95 31.3979C179.131 32.954 177.384 33.8549 175.336 33.8549ZM176.073 30.7973C178.394 30.7973 179.895 29.132 179.895 26.7023C179.895 24.2726 178.394 22.58 176.073 22.58C173.753 22.58 172.333 24.2999 172.333 26.7023C172.333 29.1047 173.753 30.7973 176.073 30.7973Z" fill="#3C5FDB"/>
</svg>
