<svg width="64" height="64" viewBox="0 0 64 64" fill="none" xmlns="http://www.w3.org/2000/svg">
<circle cx="32" cy="32" r="32" fill="white"/>
<circle cx="32" cy="32" r="32" fill="#3C5FDB" fill-opacity="0.2"/>
<rect x="4" y="4" width="56" height="56" rx="28" fill="#3C5FDB"/>
<rect x="4" y="4" width="56" height="56" rx="28" fill="url(#paint0_linear_1_45)" fill-opacity="0.2"/>
<path d="M26.5776 35.4816C25.1628 36.324 21.4534 38.0441 23.7127 40.1966C24.8163 41.248 26.0455 42 27.5909 42H36.4091C37.9545 42 39.1837 41.248 40.2873 40.1966C42.5466 38.0441 38.8372 36.324 37.4224 35.4816C34.1048 33.5061 29.8952 33.5061 26.5776 35.4816Z" stroke="white" stroke-width="1.5" stroke-linecap="round" stroke-linejoin="round"/>
<path d="M36.5 26.5C36.5 28.9853 34.4853 31 32 31C29.5147 31 27.5 28.9853 27.5 26.5C27.5 24.0147 29.5147 22 32 22C34.4853 22 36.5 24.0147 36.5 26.5Z" stroke="white" stroke-width="1.5"/>
<defs>
<linearGradient id="paint0_linear_1_45" x1="32" y1="4" x2="32" y2="60" gradientUnits="userSpaceOnUse">
<stop stop-color="white" stop-opacity="0"/>
<stop offset="1" stop-color="white"/>
</linearGradient>
</defs>
</svg>
