<svg width="64" height="64" viewBox="0 0 64 64" fill="none" xmlns="http://www.w3.org/2000/svg">
<circle cx="32" cy="32" r="32" fill="white"/>
<circle cx="32" cy="32" r="32" fill="#3C5FDB" fill-opacity="0.2"/>
<rect x="4" y="4" width="56" height="56" rx="28" fill="#3C5FDB"/>
<rect x="4" y="4" width="56" height="56" rx="28" fill="url(#paint0_linear_1_330)" fill-opacity="0.2"/>
<path d="M35 30.75C35 32.4069 33.6569 33.75 32 33.75C30.3431 33.75 29 32.4069 29 30.75C29 29.0932 30.3431 27.75 32 27.75C33.6569 27.75 35 29.0932 35 30.75Z" stroke="white" stroke-width="1.5"/>
<path d="M40.0684 26.4919L39.6381 25.7424C39.3127 25.1755 39.1499 24.8921 38.8731 24.7791C38.5962 24.666 38.2831 24.7552 37.6569 24.9336L36.5931 25.2343C36.1933 25.3269 35.7738 25.2744 35.4087 25.0861L35.1151 24.916C34.802 24.7148 34.5612 24.4181 34.4279 24.0693L34.1368 23.1966C33.9454 22.6191 33.8497 22.3303 33.6218 22.1652C33.3939 22 33.0913 22 32.4859 22H31.5141C30.9087 22 30.6061 22 30.3782 22.1652C30.1503 22.3303 30.0546 22.6191 29.8632 23.1966L29.5721 24.0693C29.4388 24.4181 29.198 24.7148 28.885 24.916L28.5913 25.0861C28.2262 25.2744 27.8067 25.3269 27.4069 25.2343L26.3431 24.9336C25.7169 24.7552 25.4038 24.666 25.1269 24.7791C24.8501 24.8921 24.6873 25.1755 24.3619 25.7424L23.9316 26.4919C23.6266 27.0232 23.474 27.2889 23.5036 27.5717C23.5332 27.8545 23.7374 28.0824 24.1458 28.5383L25.0446 29.5469C25.2643 29.826 25.4203 30.3125 25.4203 30.7499C25.4203 31.1875 25.2644 31.6738 25.0447 31.953L24.1458 32.9617C23.7374 33.4175 23.5332 33.6454 23.5036 33.9282C23.474 34.211 23.6266 34.4767 23.9316 35.008L24.3619 35.7575C24.6873 36.3244 24.8501 36.6078 25.1269 36.7209C25.4038 36.8339 25.7169 36.7447 26.3432 36.5663L27.4069 36.2656C27.8068 36.173 28.2263 36.2255 28.5914 36.4139L28.8851 36.584C29.198 36.7852 29.4388 37.0819 29.572 37.4306L29.8632 38.3034C30.0546 38.8809 30.1503 39.1697 30.3782 39.3348C30.6061 39.5 30.9087 39.5 31.5141 39.5H32.4859C33.0913 39.5 33.3939 39.5 33.6218 39.3348C33.8497 39.1697 33.9454 38.8809 34.1368 38.3034L34.428 37.4306C34.5612 37.0819 34.802 36.7852 35.1149 36.584L35.4086 36.4139C35.7737 36.2255 36.1932 36.173 36.5931 36.2656L37.6569 36.5663C38.2831 36.7447 38.5962 36.8339 38.8731 36.7209C39.15 36.6078 39.3127 36.3244 39.6381 35.7575L40.0684 35.008C40.3735 34.4767 40.526 34.211 40.4964 33.9282C40.4668 33.6454 40.2626 33.4175 39.8542 32.9617L38.9553 31.953C38.7356 31.6738 38.5797 31.1875 38.5797 30.7499C38.5797 30.3125 38.7357 29.826 38.9554 29.5469L39.8542 28.5383C40.2626 28.0824 40.4668 27.8545 40.4964 27.5717C40.526 27.2889 40.3735 27.0232 40.0684 26.4919Z" stroke="white" stroke-width="1.5" stroke-linecap="round"/>
<path d="M42 38C42 38.93 42 39.395 41.8978 39.7765C41.6204 40.8117 40.8117 41.6204 39.7765 41.8978C39.395 42 38.93 42 38 42H26C25.07 42 24.605 42 24.2235 41.8978C23.1883 41.6204 22.3796 40.8117 22.1022 39.7765C22 39.395 22 38.93 22 38" stroke="white" stroke-width="1.5" stroke-linecap="round"/>
<defs>
<linearGradient id="paint0_linear_1_330" x1="32" y1="4" x2="32" y2="60" gradientUnits="userSpaceOnUse">
<stop stop-color="white" stop-opacity="0"/>
<stop offset="1" stop-color="white"/>
</linearGradient>
</defs>
</svg>
